# xmcd
#
# Track frame offsets:
#	150
#	4860
#	78748
#	101793
#	121609
#	188872
#
# Disc length: 3269 seconds
#
# Revision: 0
# Processed by: cddbd v1.5.2PL0 Copyright (c) Steve Scherf et al.
# Submitted via: EasyCDDAExtractor 9.0.0.1
#
DISCID=440cc306
DTITLE=Frank Marino - Shank Hall Milwaukee WI 17-08-01 Disc 1
DYEAR=2001
DGENRE=Hard Rock
TTITLE0=Intro 
TTITLE1=Voodoo Chile
TTITLE2=The Answer
TTITLE3=Midnight Highway
TTITLE4=Red House
TTITLE5=He's Calling 
EXTD=
EXTT0=
EXTT1=
EXTT2=
EXTT3=
EXTT4=
EXTT5=
PLAYORDER=
